<?xml version="1.0" encoding="us-ascii" standalone="no"?><svg xmlns="http://www.w3.org/2000/svg" xmlns:xlink="http://www.w3.org/1999/xlink" contentStyleType="text/css" height="599px" preserveAspectRatio="none" style="width:618px;height:599px;background:#FFFFFF;" version="1.1" viewBox="0 0 618 599" width="618px" zoomAndPan="magnify"><defs/><g><!--entity root--><g id="elem_root"><rect fill="#FFC0CB" height="68.8906" rx="2.5" ry="2.5" style="stroke:#181818;stroke-width:0.5;" width="219" x="304" y="12"/><text fill="#000000" font-family="sans-serif" font-size="14" lengthAdjust="spacing" textLength="70" x="378.5" y="34.9951">&#127795; &#1050;&#1054;&#1056;&#1045;&#1053;&#1068;</text><text fill="#000000" font-family="sans-serif" font-size="14" lengthAdjust="spacing" textLength="124" x="351.5" y="51.292">&#1057;&#1077;&#1088;&#1074;&#1080;&#1089;&#1099; &#1087;&#1072;&#1076;&#1072;&#1102;&#1090;</text><text fill="#000000" font-family="sans-serif" font-size="14" lengthAdjust="spacing" textLength="199" x="314" y="67.5889">(5 &#1080;&#1085;&#1094;&#1080;&#1076;&#1077;&#1085;&#1090;&#1086;&#1074; &#1079;&#1072; &#1087;&#1086;&#1083;&#1075;&#1086;&#1076;&#1072;)</text></g><!--entity clients--><g id="elem_clients"><rect fill="#F1F1F1" height="52.5938" rx="2.5" ry="2.5" style="stroke:#181818;stroke-width:0.5;" width="111" x="198" y="126"/><text fill="#000000" font-family="sans-serif" font-size="14" lengthAdjust="spacing" textLength="66" x="220.5" y="148.9951">&#1050;&#1083;&#1080;&#1077;&#1085;&#1090;&#1099;</text><text fill="#000000" font-family="sans-serif" font-size="14" lengthAdjust="spacing" textLength="91" x="208" y="165.292">&#1085;&#1077;&#1076;&#1086;&#1074;&#1086;&#1083;&#1100;&#1085;&#1099;</text></g><!--entity business--><g id="elem_business"><rect fill="#F1F1F1" height="52.5938" rx="2.5" ry="2.5" style="stroke:#181818;stroke-width:0.5;" width="130" x="188.5" y="232"/><text fill="#000000" font-family="sans-serif" font-size="14" lengthAdjust="spacing" textLength="110" x="198.5" y="254.9951">&#1041;&#1080;&#1079;&#1085;&#1077;&#1089; &#1090;&#1077;&#1088;&#1103;&#1077;&#1090;</text><text fill="#000000" font-family="sans-serif" font-size="14" lengthAdjust="spacing" textLength="52" x="227.5" y="271.292">&#1076;&#1077;&#1085;&#1100;&#1075;&#1080;</text></g><!--entity neighbors--><g id="elem_neighbors"><rect fill="#F1F1F1" height="68.8906" rx="2.5" ry="2.5" style="stroke:#181818;stroke-width:0.5;" width="171" x="328" y="118"/><text fill="#000000" font-family="sans-serif" font-size="14" lengthAdjust="spacing" textLength="151" x="338" y="140.9951">&#1057;&#1084;&#1077;&#1078;&#1085;&#1080;&#1082;&#1080; &#1087;&#1088;&#1080;&#1093;&#1086;&#1076;&#1103;&#1090;</text><text fill="#000000" font-family="sans-serif" font-size="14" lengthAdjust="spacing" textLength="91" x="368" y="157.292">&#1089; &#1074;&#1086;&#1087;&#1088;&#1086;&#1089;&#1072;&#1084;&#1080;</text><text fill="#000000" font-family="sans-serif" font-size="14" lengthAdjust="spacing" textLength="111" x="358" y="173.5889">(3 &#1088;&#1072;&#1079;/&#1085;&#1077;&#1076;&#1077;&#1083;&#1102;)</text></g><!--entity duty--><g id="elem_duty"><rect fill="#F1F1F1" height="68.8906" rx="2.5" ry="2.5" style="stroke:#181818;stroke-width:0.5;" width="156" x="336.5" y="224"/><text fill="#000000" font-family="sans-serif" font-size="14" lengthAdjust="spacing" textLength="136" x="346.5" y="246.9951">&#1044;&#1077;&#1078;&#1091;&#1088;&#1085;&#1099;&#1081; &#1090;&#1088;&#1072;&#1090;&#1080;&#1090;</text><text fill="#000000" font-family="sans-serif" font-size="14" lengthAdjust="spacing" textLength="44" x="392.5" y="263.292">&#1074;&#1088;&#1077;&#1084;&#1103;</text><text fill="#000000" font-family="sans-serif" font-size="14" lengthAdjust="spacing" textLength="136" x="346.5" y="279.5889">(12 &#1095;&#1072;&#1089;&#1086;&#1074;/&#1085;&#1077;&#1076;&#1077;&#1083;&#1102;)</text></g><!--entity fear--><g id="elem_fear"><rect fill="#F1F1F1" height="52.5938" rx="2.5" ry="2.5" style="stroke:#181818;stroke-width:0.5;" width="117" x="227" y="361"/><text fill="#000000" font-family="sans-serif" font-size="14" lengthAdjust="spacing" textLength="97" x="237" y="383.9951">&#1051;&#1102;&#1076;&#1080; &#1073;&#1086;&#1103;&#1090;&#1089;&#1103;</text><text fill="#000000" font-family="sans-serif" font-size="14" lengthAdjust="spacing" textLength="74" x="248.5" y="400.292">&#1076;&#1077;&#1078;&#1091;&#1088;&#1080;&#1090;&#1100;</text></g><!--entity notime--><g id="elem_notime"><rect fill="#F1F1F1" height="52.5938" rx="2.5" ry="2.5" style="stroke:#181818;stroke-width:0.5;" width="115" x="368" y="361"/><text fill="#000000" font-family="sans-serif" font-size="14" lengthAdjust="spacing" textLength="95" x="378" y="383.9951">&#1053;&#1077;&#1090; &#1074;&#1088;&#1077;&#1084;&#1077;&#1085;&#1080;</text><text fill="#000000" font-family="sans-serif" font-size="14" lengthAdjust="spacing" textLength="81" x="385" y="400.292">&#1085;&#1072; &#1090;&#1077;&#1093;&#1076;&#1086;&#1083;&#1075;</text></g><!--entity stress--><g id="elem_stress"><rect fill="#F1F1F1" height="52.5938" rx="2.5" ry="2.5" style="stroke:#181818;stroke-width:0.5;" width="157" x="188" y="451"/><text fill="#000000" font-family="sans-serif" font-size="14" lengthAdjust="spacing" textLength="137" x="198" y="473.9951">&#1063;&#1077;&#1083;&#1086;&#1074;&#1077;&#1082; &#1074; &#1089;&#1090;&#1088;&#1077;&#1089;&#1089;&#1077;</text><text fill="#000000" font-family="sans-serif" font-size="14" lengthAdjust="spacing" textLength="110" x="211.5" y="490.292">&#1093;&#1091;&#1078;&#1077; &#1088;&#1072;&#1073;&#1086;&#1090;&#1072;&#1077;&#1090;</text></g><!--entity perf--><g id="elem_perf"><rect fill="#F1F1F1" height="52.5938" rx="2.5" ry="2.5" style="stroke:#181818;stroke-width:0.5;" width="179" x="6" y="541"/><text fill="#000000" font-family="sans-serif" font-size="14" lengthAdjust="spacing" textLength="159" x="16" y="563.9951">&#1055;&#1088;&#1086;&#1080;&#1079;&#1074;&#1086;&#1076;&#1080;&#1090;&#1077;&#1083;&#1100;&#1085;&#1086;&#1089;&#1090;&#1100;</text><text fill="#000000" font-family="sans-serif" font-size="14" lengthAdjust="spacing" textLength="70" x="60.5" y="580.292">&#1089;&#1090;&#1088;&#1072;&#1076;&#1072;&#1077;&#1090;</text></g><!--entity morale--><g id="elem_morale"><rect fill="#F1F1F1" height="52.5938" rx="2.5" ry="2.5" style="stroke:#181818;stroke-width:0.5;" width="169" x="203" y="541"/><text fill="#000000" font-family="sans-serif" font-size="14" lengthAdjust="spacing" textLength="149" x="213" y="563.9951">&#1054;&#1073;&#1097;&#1080;&#1081; &#1076;&#1091;&#1093; &#1082;&#1086;&#1084;&#1072;&#1085;&#1076;&#1099;</text><text fill="#000000" font-family="sans-serif" font-size="14" lengthAdjust="spacing" textLength="70" x="252.5" y="580.292">&#1089;&#1090;&#1088;&#1072;&#1076;&#1072;&#1077;&#1090;</text></g><!--entity debt--><g id="elem_debt"><rect fill="#F1F1F1" height="36.2969" rx="2.5" ry="2.5" style="stroke:#181818;stroke-width:0.5;" width="136" x="363.5" y="459.5"/><text fill="#000000" font-family="sans-serif" font-size="14" lengthAdjust="spacing" textLength="116" x="373.5" y="482.4951">&#1058;&#1077;&#1093;&#1076;&#1086;&#1083;&#1075; &#1088;&#1072;&#1089;&#1090;&#1105;&#1090;</text></g><!--entity worse--><g id="elem_worse"><rect fill="#F1F1F1" height="52.5938" rx="2.5" ry="2.5" style="stroke:#181818;stroke-width:0.5;" width="172" x="411.5" y="541"/><text fill="#000000" font-family="sans-serif" font-size="14" lengthAdjust="spacing" textLength="152" x="421.5" y="563.9951">&#1057;&#1077;&#1088;&#1074;&#1080;&#1089;&#1099; &#1089;&#1090;&#1072;&#1085;&#1086;&#1074;&#1103;&#1090;&#1089;&#1103;</text><text fill="#000000" font-family="sans-serif" font-size="14" lengthAdjust="spacing" textLength="72" x="461.5" y="580.292">&#1077;&#1097;&#1105; &#1093;&#1091;&#1078;&#1077;</text></g><polygon fill="#181818" points="292.7676,125.976,302.4936,124.4249,296.9599,123.2511,298.1337,117.7174,292.7676,125.976" style="stroke:#181818;stroke-width:1.0;"/><path d="M361.5526,81.2658 C339.1968,95.7971 318.5253,109.2335 297.7983,122.7061 " fill="none" style="stroke:#181818;stroke-width:1.0;"/><polygon fill="#181818" points="253.5,231.7274,257.5,222.7274,253.5,226.7274,249.5,222.7274,253.5,231.7274" style="stroke:#181818;stroke-width:1.0;"/><path d="M253.5,179.2079 C253.5,195.2081 253.5,209.7151 253.5,225.7274 " fill="none" style="stroke:#181818;stroke-width:1.0;"/><polygon fill="#181818" points="413.5,117.9036,417.5,108.9036,413.5,112.9036,409.5,108.9036,413.5,117.9036" style="stroke:#181818;stroke-width:1.0;"/><path d="M413.5,81.2658 C413.5,93.0094 413.5,100.1737 413.5,111.9036 " fill="none" style="stroke:#181818;stroke-width:1.0;"/><polygon fill="#181818" points="414.177,223.9036,418.0902,214.8656,414.1289,218.9038,410.0906,214.9425,414.177,223.9036" style="stroke:#181818;stroke-width:1.0;"/><path d="M413.8247,187.2658 C413.9376,199.0094 414.0065,206.174 414.1193,217.9039 " fill="none" style="stroke:#181818;stroke-width:1.0;"/><polygon fill="#181818" points="311.7022,360.704,320.9219,357.2404,315.2653,357.1962,315.3095,351.5395,311.7022,360.704" style="stroke:#181818;stroke-width:1.0;"/><path d="M380.269,293.2002 C358.772,314.364 335.7493,337.0297 315.9779,356.4947 " fill="none" style="stroke:#181818;stroke-width:1.0;"/><polygon fill="#181818" points="423.2657,360.704,426.4742,351.3924,422.8342,355.7227,418.504,352.0828,423.2657,360.704" style="stroke:#181818;stroke-width:1.0;"/><path d="M417.4189,293.2002 C419.252,314.364 421.062,335.2615 422.748,354.7264 " fill="none" style="stroke:#181818;stroke-width:1.0;"/><polygon fill="#181818" points="272.0579,450.7584,277.8672,442.8053,273.1131,445.871,270.0474,441.1169,272.0579,450.7584" style="stroke:#181818;stroke-width:1.0;"/><path d="M279.9021,414.4269 C277.4283,425.8849 275.7934,433.457 273.3241,444.8935 " fill="none" style="stroke:#181818;stroke-width:1.0;"/><polygon fill="#181818" points="145.1864,540.9304,155.0192,540.3688,149.6322,538.6425,151.3586,533.2555,145.1864,540.9304" style="stroke:#181818;stroke-width:1.0;"/><path d="M216.58,504.1898 C194.1038,515.7565 172.9699,526.6325 150.5214,538.1849 " fill="none" style="stroke:#181818;stroke-width:1.0;"/><polygon fill="#181818" points="281.3571,540.7584,283.1588,531.0757,280.1965,535.8949,275.3773,532.9327,281.3571,540.7584" style="stroke:#181818;stroke-width:1.0;"/><path d="M272.6871,504.4269 C275.4214,515.8849 277.2352,523.4858 279.9644,534.9222 " fill="none" style="stroke:#181818;stroke-width:1.0;"/><polygon fill="#181818" points="430.332,459.3696,433.7105,450.1183,429.9919,454.3812,425.7291,450.6625,430.332,459.3696" style="stroke:#181818;stroke-width:1.0;"/><path d="M427.2677,414.4269 C428.2564,428.9268 429.053,440.61 429.9239,453.3835 " fill="none" style="stroke:#181818;stroke-width:1.0;"/><polygon fill="#181818" points="478.2326,540.8102,476.0326,531.2102,475.2326,536.8102,469.6326,536.0102,478.2326,540.8102" style="stroke:#181818;stroke-width:1.0;"/><path d="M444.5395,495.886 C454.1567,508.7089 463.7968,521.5624 474.6326,536.0102 " fill="none" style="stroke:#181818;stroke-width:1.0;"/><polygon fill="#181818" points="481.7887,81.1781,486.8475,89.6284,485.8779,84.0553,491.451,83.0857,481.7887,81.1781" style="stroke:#181818;stroke-width:1.0;"/><path d="M486.6957,84.6307 C510.9746,101.7138 527.5,121.7629 527.5,151.5 C527.5,151.5 527.5,151.5 527.5,478.5 C527.5,500.2906 519.1573,523.5709 511.2708,540.7101 " fill="none" style="stroke:#181818;stroke-width:1.0;"/><text fill="#000000" font-family="sans-serif" font-size="13" lengthAdjust="spacing" textLength="82" x="528.5" y="324.0669">&#10226; &#1055;&#1086;&#1088;&#1086;&#1095;&#1085;&#1099;&#1081;</text><text fill="#000000" font-family="sans-serif" font-size="13" lengthAdjust="spacing" textLength="30" x="554.5" y="339.1997">&#1082;&#1088;&#1091;&#1075;</text><!--SRC=[RLGzRnD14EtzAvRGG14XG3GKI8GM8GeQf3HdtzevvNnhxPqLqc5R9efinOe43IWneQ6XS1mVkNoPlp3x5_W5_0JUxDgNEolDt7bkvysRzsPzhwMzHjCJeRUhsec8cpBn8gyIRmTHozDUK_YoxhN3v9tyaBmCWqRKb54YQWXI5qwzKRxSy6hR3QtQaVzAXKgBrq5ZAtalmr3jh9vKsfVQdTe8KLQfQ5b3uqOenTg_yV1Cq5Swfk_qXOxersP49vIQZpIbp7JCGD0Vcj2C9kR0T3UZ1yy4PNHZFY7EACLRb-Oq5NHE4puwfoiwGqJ1mpNXnK8hbOZxRuEet1Sjhm1X0Sm0JM_mFcCeXZ13v0UslXO6c3ykrHwYyfmhJ4UWFzYQ4IBeBJWDmI6pvTLs74GoZilDJ-WQvtu38gDBoa0S0sUcpyJDY860RAdmXxdfG89hoZ3-Ku74XCuVBGYd87lW9eqaFAWgNURwcHkP7gem4Ls0BmE0TMRvJl4hfMip0lRZ9yBiuLk7PRYZWTzETijpV3C7E0B-fo09tZ1ij131zKGJCxJ5TUdfKkqHAoQM15Ws7X1nuZJjMplWfXjE9K5Jbhl_P7BMifGkWIJGdgU3BPWXXOXzquFAgTECENRnH5iB6IUQZIaYZbbjQ-xKxb36JDmwi0iy35lZDEGToy5QKjTBKCTqQlO1TI5WQS_q1OoUOyu9e6QySNV2D9NsmfKnVnJ5iAFOqiD5YI-hoSfo5QyFdxLDeLF1ejJicqEn5CW2xM1rk3LVc7LVxKJhB_BjNpppV66jYyTlLp1_ox-vxU6Of-nEb39Bc_bBdbmOvHvvrYg-ablAvs1kMxD47FACczL6iTvk8MFdU2x-Zl5VCeRPVEtst9s1N9UuuZqwg_m7]--></g></svg>